<?xml version="1.0" encoding="utf-8"?>
<!-- Generator: Adobe Illustrator 22.1.0, SVG Export Plug-In . SVG Version: 6.00 Build 0)  -->
<svg version="1.1" id="Слой_1" xmlns="http://www.w3.org/2000/svg" xmlns:xlink="http://www.w3.org/1999/xlink" x="0px" y="0px"
	 viewBox="0 0 24 20" style="enable-background:new 0 0 24 20; width: 27px" xml:space="preserve">
<style type="text/css">
	.st0{fill:#21A45D;}
</style>
<path class="st0" d="M3.3,7.5v0.4h9.3V7.5H3.3z M12.9,8.5H3.1c-1,0-1.7,0.8-1.7,1.8v6.6c0,1,0.8,1.8,1.7,1.8h9.8
	c1,0,1.7-0.8,1.7-1.8v-6.6C14.6,9.3,13.8,8.5,12.9,8.5z M14.1,16.8c0,0.7-0.5,1.3-1.2,1.3H3.1c-0.7,0-1.2-0.6-1.2-1.3v-6.6
	C1.9,9.6,2.4,9,3.1,9h9.8c0.7,0,1.2,0.6,1.2,1.3V16.8z M12.9,8.5H3.1c-1,0-1.7,0.8-1.7,1.8v6.6c0,1,0.8,1.8,1.7,1.8h9.8
	c1,0,1.7-0.8,1.7-1.8v-6.6C14.6,9.3,13.8,8.5,12.9,8.5z M14.1,16.8c0,0.7-0.5,1.3-1.2,1.3H3.1c-0.7,0-1.2-0.6-1.2-1.3v-6.6
	C1.9,9.6,2.4,9,3.1,9h9.8c0.7,0,1.2,0.6,1.2,1.3V16.8z M12.6,7.5H3.3v0.4h9.3V7.5z M13.8,7.5h-0.5v0.4l0.2,0.1
	c1.1,0.3,1.8,1.2,1.8,2.4v6.6c0,1.3-1.1,2.4-2.4,2.4H3.1c-1.3,0-2.4-1.1-2.4-2.4v-6.6c0-1.1,0.7-2.1,1.8-2.4l0.2-0.1V7.5H2.2
	c-1.2,0.4-2,1.5-2,2.8v6.6c0,1.6,1.3,2.9,2.9,2.9h9.8c1.6,0,2.9-1.3,2.9-2.9v-6.6C15.8,9,15,7.9,13.8,7.5z M1.4,10.3v6.6
	c0,1,0.8,1.8,1.7,1.8h9.8c1,0,1.7-0.8,1.7-1.8v-6.6c0-1-0.8-1.8-1.7-1.8H3.1C2.1,8.5,1.4,9.3,1.4,10.3z M3.1,9h9.8
	c0.7,0,1.2,0.6,1.2,1.3v6.6c0,0.7-0.5,1.3-1.2,1.3H3.1c-0.7,0-1.2-0.6-1.2-1.3v-6.6C1.9,9.6,2.4,9,3.1,9z M12.6,7.5H3.3v0.4h9.3V7.5
	z"/>
<path class="st0" d="M17.9,0.8c-3,0-5.5,2.3-5.5,5.1v1.5h1.2V6c0-2.2,2-4,4.4-4c2.5,0,4.4,1.8,4.4,4v1.5h1.2V6
	C23.5,3.1,21,0.8,17.9,0.8z"/>
<path class="st0" d="M17.9,1.8c-2.6,0-4.6,1.9-4.6,4.2v1.5h0.5V6c0-2,1.9-3.7,4.1-3.7c2.3,0,4.1,1.7,4.1,3.7v1.5h0.5V6
	C22.6,3.6,20.5,1.8,17.9,1.8z M17.9,0.6c-3.2,0-5.8,2.4-5.8,5.4v1.5h0.5V6c0-2.7,2.4-4.9,5.3-4.9c2.9,0,5.3,2.2,5.3,4.9v1.5h0.5V6
	C23.7,3,21.1,0.6,17.9,0.6z M17.9,1.8c-2.6,0-4.6,1.9-4.6,4.2v1.5h0.5V6c0-2,1.9-3.7,4.1-3.7c2.3,0,4.1,1.7,4.1,3.7v1.5h0.5V6
	C22.6,3.6,20.5,1.8,17.9,1.8z M17.9,1.8c-2.6,0-4.6,1.9-4.6,4.2v1.5h0.5V6c0-2,1.9-3.7,4.1-3.7c2.3,0,4.1,1.7,4.1,3.7v1.5h0.5V6
	C22.6,3.6,20.5,1.8,17.9,1.8z"/>
<path class="st0" d="M8,15.8c-0.6,0-1-0.4-1-1v-2.3c0-0.6,0.4-1,1-1s1,0.4,1,1v2.3C9,15.4,8.5,15.8,8,15.8z"/>
<path class="st0" d="M13.5,7.7V7.5h-1.2v0.1H3.6V7.5H2.4v0.2c-1.2,0.3-2,1.4-2,2.6v6.6c0,1.5,1.2,2.7,2.6,2.7h9.8
	c1.5,0,2.6-1.2,2.6-2.7v-6.6C15.5,9,14.7,8,13.5,7.7z M14.4,10.3v6.6c0,0.8-0.7,1.5-1.5,1.5H3.1c-0.8,0-1.5-0.7-1.5-1.5v-6.6
	c0-0.8,0.7-1.5,1.5-1.5h9.8C13.7,8.7,14.4,9.4,14.4,10.3z"/>
</svg>
